# xmcd
#
# Track frame offsets: 
#        150
#        11094
#        27297
#        36607
#        51108
#        63533
#        80696
#        101482
#        116184
#        132601
#        148791
#        162888
#        173597
#        195305
#
# Disc length: 2739 seconds
#
# Revision: 0
# Processed by: cddbd v1.5.2PL0 Copyright (c) Steve Scherf et al.
# Submitted via: ExactAudioCopy v0.99pb3
#
DISCID=c80ab10e
DTITLE=Various Artist - Badd Santa: A Stones Throw Records Xmas
DYEAR=2007
DGENRE=Christmas/Holiday
TTITLE0=James Pants - This Christmas Girl
TTITLE1=Hard Call Xmas - My Christmas Bells
TTITLE2=The Free Design - Close Your Mouth It's Christmas
TTITLE3=Super Jay - Santa's Rap Party
TTITLE4=Georgia Anne Muldrow - Kwanzaa
TTITLE5=Cocoa Tea - Christmas Is Coming
TTITLE6=Quad City DJ's, The 69 Boyz And K-Nock - What You Want For Chr
TTITLE6=istmas
TTITLE7=The Soul Saints Orchestra - Santa's Got A Bag Of Soul
TTITLE8=Busy Boys - Funky Fresh Christmas
TTITLE9=Bruce Haack - I Like Christmas (Robot Version)
TTITLE10=James Brown - Go Power At Christmas Time (Album Version)
TTITLE11=Vince Guaraldi - Skating
TTITLE12=Scoopy - A Scoopy Rap
TTITLE13=Baron Zen - My Lovely Christmas
EXTD=
EXTT0=
EXTT1=
EXTT2=
EXTT3=
EXTT4=
EXTT5=
EXTT6=
EXTT7=
EXTT8=
EXTT9=
EXTT10=
EXTT11=
EXTT12=
EXTT13=
PLAYORDER=
